# xmcd
#
# Track frame offsets:
#	183
#	17605
#	40853
#	58273
#	82065
#	108833
#	134785
#	158398
#	179813
#	204350
#	227658
#	248360
#	267845
#	288433
#	307965
#
# Disc length: 4427 seconds
#
# Revision: 0
# Processed by: cddbd v1.5.2PL0 Copyright (c) Steve Scherf et al.
# Submitted via: EZCDAudioConverter 7.1.0.1
#
DISCID=c811490f
DTITLE=齐秦 - 齐秦精选
DYEAR=1990
DGENRE=
TTITLE0=大约在冬季
TTITLE1=冬雨
TTITLE2=独行
TTITLE3=外面的世界
TTITLE4=垭口
TTITLE5=狼II（巡行）
TTITLE6=空白
TTITLE7=太阳雨
TTITLE8=狼
TTITLE9=原来的我
TTITLE10=花祭
TTITLE11=九个太阳
TTITLE12=感
TTITLE13=让我孤独的时候还能够想着你
TTITLE14=不必勉强
EXTD=
EXTT0=
EXTT1=
EXTT2=
EXTT3=
EXTT4=
EXTT5=
EXTT6=
EXTT7=
EXTT8=
EXTT9=
EXTT10=
EXTT11=
EXTT12=
EXTT13=
EXTT14=
PLAYORDER=
